<svg width="800" height="800" viewBox="0 0 800 800" fill="none" xmlns="http://www.w3.org/2000/svg">
<rect width="800" height="800" fill="transparent"/>
<g clip-path="url(#clip0_0_1)">
<path d="M700 228.85V571.15L400 750L100 571.15V228.85L400 50L700 228.85ZM425 6.70001C417.399 2.3116 408.777 0.00128174 400 0.00128174C391.223 0.00128174 382.601 2.3116 375 6.70001L75 185.55C67.3992 189.938 61.0875 196.25 56.699 203.851C52.3106 211.451 50.0002 220.073 50 228.85V571.15C50.0002 579.927 52.3106 588.549 56.699 596.149C61.0875 603.75 67.3992 610.062 75 614.45L375 793.3C382.601 797.688 391.223 799.999 400 799.999C408.777 799.999 417.399 797.688 425 793.3L725 614.45C732.601 610.062 738.913 603.75 743.301 596.149C747.689 588.549 750 579.927 750 571.15V228.85C750 220.073 747.689 211.451 743.301 203.851C738.913 196.25 732.601 189.938 725 185.55L425 6.70001Z" fill="#31849B"/>
<path d="M396 494.5C396 495.091 396.103 495.676 396.304 496.222C396.506 496.768 396.8 497.264 397.172 497.682C397.543 498.1 397.984 498.431 398.469 498.657C398.955 498.884 399.475 499 400 499C400.525 499 401.045 498.884 401.531 498.657C402.016 498.431 402.457 498.1 402.828 497.682C403.2 497.264 403.495 496.768 403.696 496.222C403.897 495.676 404 495.091 404 494.5C404 493.307 403.579 492.162 402.828 491.318C402.078 490.474 401.061 490 400 490C398.939 490 397.922 490.474 397.172 491.318C396.421 492.162 396 493.307 396 494.5Z" fill="black"/>
<path d="M601 529.138V258H200V529.138H343.259V566.68H286.018V586H515.116V566.68H457.83V529.138H601ZM219.692 277.32H581.308V464.855H219.692V277.32ZM438.138 566.68H362.951V529.138H438.138V566.68ZM219.692 509.818V473.593H581.308V509.818H219.692Z" fill="#31849B"/>
<path d="M247 341.34L287.225 302L293.496 308.133L253.27 347.472L247 341.34ZM249.405 382.868L329.73 304.31L336 310.443L255.675 389L249.405 382.868Z" fill="black"/>
</g>
<defs>
<clipPath id="clip0_0_1">
<rect width="800" height="800" fill="white"/>
</clipPath>
</defs>
</svg>
