<svg width="800" height="800" viewBox="0 0 800 800" fill="none" xmlns="http://www.w3.org/2000/svg">
<rect width="800" height="800" fill="transparent"/>
<path d="M700 228.85V571.15L400 750L100 571.15V228.85L400 50L700 228.85ZM425 6.70001C417.399 2.3116 408.777 0.00128174 400 0.00128174C391.223 0.00128174 382.601 2.3116 375 6.70001L75 185.55C67.3992 189.938 61.0875 196.25 56.699 203.851C52.3106 211.451 50.0002 220.073 50 228.85V571.15C50.0002 579.927 52.3106 588.549 56.699 596.149C61.0875 603.75 67.3992 610.062 75 614.45L375 793.3C382.601 797.688 391.223 799.999 400 799.999C408.777 799.999 417.399 797.688 425 793.3L725 614.45C732.601 610.062 738.913 603.75 743.301 596.149C747.689 588.549 750 579.927 750 571.15V228.85C750 220.073 747.689 211.451 743.301 203.851C738.913 196.25 732.601 189.938 725 185.55L425 6.70001Z" fill="#31849B"/>
<path d="M391.96 325C388.117 325 385 322.012 385 318.324V261.361C385 241.976 401.443 226.205 421.653 226.205H451.347C463.882 226.205 474.081 216.423 474.081 204.398V161.676C474.081 157.989 477.196 155 481.04 155C484.883 155 488 157.988 488 161.676V204.398C488 223.784 471.557 239.555 451.347 239.555H421.654C409.118 239.555 398.919 249.336 398.919 261.361V318.324C398.919 322.011 395.804 325 391.96 325Z" fill="#333333"/>
<path d="M385 273V318.333C385 322.015 388.134 325 392 325C395.865 325 399 322.016 399 318.333V273H385Z" fill="#424F5E"/>
<path d="M406.862 283H377.138C324.127 283 281 324.441 281 375.377V518.183C281 553.372 310.794 582 347.414 582H436.586C473.206 582 503 553.372 503 518.183V375.377C503 324.44 459.873 283 406.862 283Z" fill="#31849B"/>
<path d="M503 400H281V426H503V400Z" fill="#145263"/>
<path d="M406.862 283H377.137C324.042 283 281 324.478 281 375.643V411H503V375.643C502.999 324.478 459.957 283 406.862 283Z" fill="#31849B"/>
<path d="M303.269 518.262V375.631C303.269 324.757 346.302 283.368 399.195 283.368H377.414C324.436 283.368 281.489 324.675 281.489 375.631V518.262C281.489 553.407 311.217 582 347.757 582H369.537C332.996 582 303.269 553.407 303.269 518.262Z" fill="#145263"/>
<path d="M392.243 418.421C388.405 418.421 385.292 415.428 385.292 411.735V375.631C385.292 371.939 388.404 368.945 392.243 368.945C396.082 368.945 399.195 371.938 399.195 375.631V411.735C399.195 415.428 396.083 418.421 392.243 418.421Z" fill="#145263"/>
<path d="M392 312C379.869 312 370 321.341 370 332.823V361.177C370 372.659 379.869 382 392 382C404.131 382 414 372.659 414 361.177V332.823C414 321.342 404.131 312 392 312Z" fill="#333333"/>
<path d="M399.266 375.338C387.033 375.338 377.081 365.974 377.081 354.464V326.041C377.081 321.989 378.318 318.204 380.451 315C374.181 318.692 370 325.245 370 332.703V361.126C370 372.636 379.952 382 392.185 382C400.111 382 407.076 378.066 411 372.167C407.594 374.174 403.572 375.338 399.266 375.338Z" fill="#333333"/>
<path d="M399.5 340C403.642 340 407 336.866 407 333C407 329.134 403.642 326 399.5 326C395.358 326 392 329.134 392 333C392 336.866 395.358 340 399.5 340Z" fill="#FFEBC8"/>
<path d="M273.61 275.345C271.832 275.345 270.052 274.693 268.696 273.387L253.867 259.125C251.152 256.513 251.152 252.28 253.867 249.669C256.581 247.059 260.983 247.059 263.697 249.669L278.526 263.932C282.807 268.05 279.69 275.345 273.61 275.345Z" fill="#333333"/>
<path d="M303.269 268.213C299.43 268.213 296.317 265.22 296.317 261.526V240.132C296.317 236.439 299.429 233.446 303.269 233.446C307.108 233.446 310.22 236.439 310.22 240.132V261.526C310.219 265.22 307.107 268.213 303.269 268.213Z" fill="#333333"/>
<path d="M266.196 303.87H243.951C240.113 303.87 237 300.878 237 297.184C237 293.491 240.112 290.498 243.951 290.498H266.195C270.033 290.498 273.146 293.491 273.146 297.184C273.147 300.878 270.034 303.87 266.196 303.87Z" fill="#333333"/>
</svg>
