<svg width="800" height="800" viewBox="0 0 800 800" fill="none" xmlns="http://www.w3.org/2000/svg">
<rect width="800" height="800" fill="transparent"/>
<path d="M697 228.849V571.149L397 749.999L97 571.149V228.849L397 49.9987L697 228.849ZM422 6.69873C414.399 2.31031 405.777 0 397 0C388.223 0 379.601 2.31031 372 6.69873L72 185.549C64.3992 189.937 58.0875 196.249 53.699 203.849C49.3106 211.45 47.0002 220.072 47 228.849V571.149C47.0002 579.925 49.3106 588.547 53.699 596.148C58.0875 603.749 64.3992 610.06 72 614.449L372 793.299C379.601 797.687 388.223 799.997 397 799.997C405.777 799.997 414.399 797.687 422 793.299L722 614.449C729.601 610.06 735.913 603.749 740.301 596.148C744.689 588.547 747 579.925 747 571.149V228.849C747 220.072 744.689 211.45 740.301 203.849C735.913 196.249 729.601 189.937 722 185.549L422 6.69873Z" fill="#31849B"/>
<g clip-path="url(#clip0_0_1)">
<path d="M452.358 531.011L465.325 496.574C465.812 495.28 465.238 493.812 464.015 493.201L426.468 474.329C425.478 473.832 424.917 472.794 425.004 471.7C425.554 464.519 425.309 457.389 424.3 450.423C424.135 449.333 424.643 448.248 425.599 447.706L461.854 426.446C463.045 425.743 463.533 424.249 462.95 423.002L447.771 389.488C447.497 388.879 447.006 388.394 446.394 388.127C445.782 387.86 445.093 387.829 444.46 388.041L404.531 401.23C403.472 401.583 402.351 401.236 401.633 400.414C397.001 395.01 391.794 390.127 386.105 385.852C385.225 385.195 384.815 384.089 385.094 383.017L395.683 342.325C396.03 341.004 395.305 339.604 394.011 339.116L359.574 326.149C358.28 325.662 356.812 326.236 356.201 327.459L337.329 365.006C336.832 365.996 335.794 366.557 334.7 366.47C327.519 365.92 320.389 366.165 313.423 367.174C312.333 367.339 311.248 366.831 310.706 365.875L289.438 329.642C289.102 329.065 288.564 328.634 287.927 328.431C287.291 328.229 286.602 328.269 285.994 328.546L252.48 343.725C251.871 343.999 251.386 344.49 251.119 345.102C250.851 345.714 250.821 346.403 251.032 347.036L264.26 386.929C264.613 387.988 264.266 389.11 263.445 389.827C258.041 394.459 253.158 399.666 248.882 405.356C248.225 406.235 247.119 406.645 246.047 406.367L205.325 395.791C204.004 395.444 202.604 396.169 202.116 397.463L189.149 431.9C188.662 433.194 189.236 434.662 190.459 435.273L228.006 454.144C228.996 454.642 229.557 455.68 229.47 456.774C228.92 463.955 229.165 471.085 230.174 478.051C230.34 479.141 229.831 480.226 228.875 480.768L192.642 502.036C191.451 502.739 190.963 504.234 191.546 505.48L206.725 538.994C207.299 540.262 208.722 540.873 210.036 540.442L249.929 527.214C250.988 526.861 252.11 527.208 252.827 528.029C257.42 533.39 262.617 538.277 268.356 542.592C269.235 543.249 269.645 544.355 269.367 545.427L258.792 586.149C258.436 587.492 259.169 588.87 260.463 589.358L294.9 602.325C296.194 602.812 297.662 602.238 298.273 601.015L317.145 563.468C317.642 562.478 318.68 561.917 319.774 562.004C326.955 562.554 334.085 562.309 341.051 561.3C342.141 561.134 343.226 561.643 343.768 562.599L365.028 598.854C365.731 600.045 367.225 600.533 368.472 599.95L401.986 584.771C403.254 584.197 403.865 582.774 403.433 581.459L390.205 541.567C389.853 540.508 390.2 539.386 391.021 538.669C396.382 534.076 401.269 528.879 405.584 523.14C406.241 522.261 407.347 521.851 408.419 522.129L449.149 532.682C450.47 533.03 451.87 532.305 452.358 531.011ZM317.921 488.979C304.256 483.833 297.35 468.585 302.495 454.921C307.641 441.256 322.889 434.35 336.553 439.495C350.218 444.641 357.124 459.889 351.979 473.553C346.833 487.218 331.585 494.124 317.921 488.979Z" fill="#31849B"/>
<path d="M375.552 446.066C380.15 458.266 380.161 472.27 374.371 485.316C363.728 509.258 336.135 521.482 311.23 513.331C300.638 509.869 291.995 503.359 285.872 495.143C285.407 494.517 284.435 495.102 284.763 495.827C287.868 502.894 292.493 509.19 298.307 514.267C304.122 519.344 310.985 523.077 318.406 525.2C342.753 532.239 369.155 520.518 380.222 497.712C388.816 480.011 386.618 460.376 376.768 445.497C376.297 444.819 375.284 445.314 375.552 446.066Z" fill="#2F7889"/>
<path d="M281.994 450.506C291.385 421.11 317.991 406.986 344.706 417.046C346.132 417.582 348.391 418.433 349.386 421.112C350.627 424.534 349.652 427.723 346.272 429.381C343.786 430.598 341.235 429.788 339.897 429.485C311.605 422.813 298.879 437.455 291.325 453.194C290.987 453.893 289.516 458.398 285.46 457.396C280.538 456.169 281.751 451.217 281.994 450.506Z" fill="#A2D3DA"/>
<path d="M240.676 436.326C258.849 387.997 308.745 361.305 358.215 377.779C359.731 378.275 363.589 379.803 365.184 382.883C366.648 385.713 366.138 389.528 363.762 391.914C359.935 395.757 355.801 394.1 354.666 393.723C313.521 379.883 266.703 399.995 251.633 439.951C251.393 440.587 251.044 441.181 250.61 441.669L250.184 442.135C246.882 445.85 240.737 443.812 240.319 438.871C240.271 438.001 240.371 437.137 240.676 436.326Z" fill="#7BB5C4"/>
</g>
<path d="M602.81 315.232L603.702 290.717C603.735 289.796 603.061 288.99 602.159 288.863L574.425 284.899C573.694 284.795 573.119 284.258 572.942 283.548C571.767 278.893 570.099 274.438 567.984 270.249C567.649 269.596 567.74 268.802 568.229 268.257L586.634 247.131C587.238 246.433 587.229 245.386 586.596 244.721L569.894 226.759C569.592 226.432 569.178 226.23 568.735 226.191C568.292 226.152 567.849 226.278 567.494 226.547L545.056 243.352C544.461 243.799 543.679 243.818 543.051 243.451C538.978 241.018 534.651 239.036 530.148 237.54C529.453 237.312 528.959 236.7 528.908 235.963L526.969 207.999C526.909 207.09 526.153 206.359 525.232 206.326L500.717 205.434C499.796 205.401 498.99 206.075 498.863 206.977L494.899 234.711C494.795 235.442 494.258 236.016 493.548 236.194C488.893 237.369 484.438 239.037 480.249 241.151C479.596 241.487 478.802 241.396 478.257 240.907L457.13 222.518C456.795 222.224 456.363 222.066 455.918 222.073C455.473 222.08 455.046 222.252 454.721 222.555L436.758 239.257C436.432 239.56 436.229 239.973 436.19 240.416C436.151 240.86 436.278 241.302 436.546 241.657L453.368 264.065C453.815 264.659 453.834 265.442 453.467 266.07C451.034 270.143 449.052 274.47 447.557 278.973C447.328 279.668 446.716 280.162 445.979 280.213L417.999 282.166C417.09 282.227 416.359 282.982 416.326 283.904L415.434 308.419C415.401 309.34 416.075 310.146 416.977 310.273L444.711 314.236C445.442 314.341 446.016 314.878 446.194 315.588C447.369 320.243 449.037 324.697 451.151 328.886C451.487 329.54 451.396 330.334 450.907 330.879L432.518 352.006C431.914 352.703 431.923 353.751 432.555 354.415L449.257 372.377C449.889 373.057 450.918 373.141 451.657 372.59L474.065 355.768C474.659 355.321 475.442 355.302 476.07 355.669C480.11 358.083 484.431 360.069 488.973 361.579C489.668 361.808 490.162 362.42 490.213 363.157L492.166 391.137C492.227 392.061 492.982 392.777 493.904 392.81L518.419 393.702C519.34 393.735 520.146 393.061 520.273 392.159L524.236 364.425C524.341 363.694 524.878 363.119 525.588 362.942C530.243 361.767 534.697 360.099 538.886 357.984C539.54 357.649 540.334 357.74 540.879 358.229L562.005 376.634C562.702 377.238 563.75 377.229 564.414 376.596L582.377 359.894C583.057 359.262 583.141 358.233 582.589 357.494L565.767 335.087C565.32 334.492 565.302 333.71 565.668 333.082C568.082 329.042 570.069 324.721 571.579 320.179C571.807 319.483 572.419 318.99 573.156 318.938L601.137 316.969C602.046 316.909 602.777 316.154 602.81 315.232ZM508.927 317.181C499.199 316.828 491.601 308.655 491.955 298.927C492.308 289.199 500.48 281.601 510.208 281.955C519.936 282.308 527.535 290.48 527.181 300.208C526.827 309.936 518.655 317.535 508.927 317.181Z" fill="#31849B"/>
<path d="M536.25 277.836C541.743 284.571 544.721 293.419 543.829 302.893C542.18 320.282 527.333 333.861 509.864 333.992C502.435 334.05 495.592 331.769 489.979 327.875C489.552 327.578 489.062 328.154 489.424 328.542C492.885 332.351 497.143 335.349 501.895 337.324C506.647 339.3 511.776 340.203 516.917 339.971C533.798 339.256 547.999 326.248 550.156 309.487C551.833 296.477 546.279 284.533 536.898 277.218C536.457 276.889 535.921 277.417 536.25 277.836Z" fill="#2F7889"/>
<path d="M478.061 300.486C477.761 279.915 491.581 265.345 510.6 266.036C511.615 266.073 513.223 266.132 514.42 267.614C515.93 269.514 515.99 271.736 514.206 273.5C512.892 274.797 511.109 274.826 510.198 274.918C490.902 276.703 485.964 288.656 484.528 300.205C484.463 300.719 484.488 303.878 481.713 304.106C478.341 304.374 478.058 300.986 478.061 300.486Z" fill="#A2D3DA"/>
<path d="M448.939 300.287C450.174 265.887 476.049 238.434 510.809 238.354C511.872 238.346 514.634 238.493 516.296 240.101C517.821 241.58 518.308 244.099 517.313 246.111C515.709 249.352 512.745 249.181 511.947 249.184C483.007 249.163 457.683 271.805 456.633 300.254C456.617 300.707 456.522 301.157 456.351 301.557L456.181 301.942C454.882 304.99 450.566 305.006 449.253 301.971C449.038 301.432 448.918 300.865 448.939 300.287Z" fill="#7BB5C3"/>
<defs>
<clipPath id="clip0_0_1">
<rect width="300" height="300" fill="white" transform="translate(239.719 271) rotate(20.6339)"/>
</clipPath>
</defs>
</svg>
