<?xml version="1.0" encoding="iso-8859-1"?>
<!-- Uploaded to: SVG Repo, www.svgrepo.com, Generator: SVG Repo Mixer Tools -->
<svg version="1.1" id="Layer_1" xmlns="http://www.w3.org/2000/svg" xmlns:xlink="http://www.w3.org/1999/xlink" 
	 viewBox="0 0 512 512" xml:space="preserve">
<path style="fill:#68727E;" d="M281.653,204.159c-4.427,0-8.017-3.588-8.017-8.017v-68.409c0-23.281,18.941-42.221,42.221-42.221
	h34.205c14.44,0,26.188-11.747,26.188-26.188V8.017c0-4.428,3.589-8.017,8.017-8.017c4.427,0,8.017,3.588,8.017,8.017v51.307
	c0,23.281-18.941,42.221-42.221,42.221h-34.205c-14.44,0-26.188,11.747-26.188,26.188v68.409
	C289.67,200.57,286.081,204.159,281.653,204.159z"/>
<path style="fill:#424F5E;" d="M273.637,141.628v54.514c0,4.428,3.589,8.017,8.017,8.017c4.427,0,8.017-3.588,8.017-8.017v-54.514
	H273.637z"/>
<path style="fill:#FF8C78;" d="M298.756,153.921h-34.205c-61.002,0-110.63,49.629-110.63,110.63v171.023
	c0,42.141,34.285,76.426,76.426,76.426H332.96c42.141,0,76.426-34.285,76.426-76.426V264.551
	C409.386,203.549,359.758,153.921,298.756,153.921z"/>
<rect x="153.921" y="294.127" style="fill:#DF7A6E;" width="255.466" height="30.285"/>
<path style="fill:#FF8C78;" d="M298.756,153.921h-34.205c-61.099,0-110.63,49.531-110.63,110.63v42.221h255.466v-42.221
	C409.386,203.452,359.855,153.921,298.756,153.921z"/>
<g>
	<path style="fill:#DF7A6E;" d="M179.04,435.574V264.551c0-61.002,49.629-110.63,110.63-110.63h-25.119
		c-61.099,0-110.63,49.53-110.63,110.63v171.023c0,42.141,34.285,76.426,76.426,76.426h25.119
		C213.324,512,179.04,477.715,179.04,435.574z"/>
	<path style="fill:#DF7A6E;" d="M281.653,315.858c-4.427,0-8.017-3.588-8.017-8.017v-43.29c0-4.428,3.589-8.017,8.017-8.017
		c4.427,0,8.017,3.588,8.017,8.017v43.29C289.67,312.27,286.081,315.858,281.653,315.858z"/>
</g>
<path style="fill:#FFC44F;" d="M281.653,188.125c-13.851,0-25.119,11.268-25.119,25.119v34.205
	c0,13.851,11.268,25.119,25.119,25.119c13.851,0,25.119-11.268,25.119-25.119v-34.205
	C306.772,199.394,295.504,188.125,281.653,188.125z"/>
<path style="fill:#F7B14D;" d="M289.67,264.551c-13.851,0-25.119-11.268-25.119-25.119v-34.205c0-4.876,1.401-9.43,3.816-13.286
	c-7.099,4.443-11.833,12.329-11.833,21.303v34.205c0,13.851,11.268,25.119,25.119,25.119c8.974,0,16.86-4.734,21.303-11.833
	C299.1,263.15,294.546,264.551,289.67,264.551z"/>
<circle style="fill:#FFEBC8;" cx="290.205" cy="213.244" r="8.551"/>
<g>
	<path style="fill:#F7B14D;" d="M144.835,144.301c-2.051,0-4.104-0.782-5.668-2.347l-17.102-17.102
		c-3.131-3.132-3.131-8.207,0-11.338c3.131-3.13,8.207-3.13,11.337,0l17.102,17.102
		C155.442,135.554,151.847,144.301,144.835,144.301z"/>
	<path style="fill:#F7B14D;" d="M179.04,135.749c-4.427,0-8.017-3.588-8.017-8.017v-25.653c0-4.428,3.589-8.017,8.017-8.017
		s8.017,3.588,8.017,8.017v25.653C187.056,132.161,183.467,135.749,179.04,135.749z"/>
	<path style="fill:#F7B14D;" d="M136.284,178.505H110.63c-4.427,0-8.017-3.588-8.017-8.017c0-4.428,3.589-8.017,8.017-8.017h25.653
		c4.427,0,8.017,3.588,8.017,8.017C144.301,174.917,140.711,178.505,136.284,178.505z"/>
</g>
</svg>