<svg width="800" height="800" viewBox="0 0 800 800" fill="none" xmlns="http://www.w3.org/2000/svg">
<rect width="800" height="800" fill="transparent"/>
<path d="M697 228.849V571.149L397 749.999L97 571.149V228.849L397 49.9987L697 228.849ZM422 6.69873C414.399 2.31031 405.777 0 397 0C388.223 0 379.601 2.31031 372 6.69873L72 185.549C64.3992 189.937 58.0875 196.249 53.699 203.849C49.3106 211.45 47.0002 220.072 47 228.849V571.149C47.0002 579.925 49.3106 588.547 53.699 596.148C58.0875 603.749 64.3992 610.06 72 614.449L372 793.299C379.601 797.687 388.223 799.997 397 799.997C405.777 799.997 414.399 797.687 422 793.299L722 614.449C729.601 610.06 735.913 603.749 740.301 596.148C744.689 588.547 747 579.925 747 571.149V228.849C747 220.072 744.689 211.45 740.301 203.849C735.913 196.249 729.601 189.937 722 185.549L422 6.69873Z" fill="#31849B"/>
<path fill-rule="evenodd" clip-rule="evenodd" d="M499.428 300.095L497.098 302.264C488.141 310.579 475.091 311.119 465.575 303.57C446.688 288 423.695 279.42 399.978 279.091C376.267 279.424 353.281 288.004 334.399 303.57C324.884 311.119 311.834 310.579 302.877 302.264L300.547 300.095C323.951 265.838 360.686 245.315 399.978 244.545C439.276 245.309 476.019 265.832 499.428 300.095Z" fill="#333333"/>
<path fill-rule="evenodd" clip-rule="evenodd" d="M342.23 557.182C343.68 565.278 341.713 573.654 336.867 580.009C332.022 586.363 324.809 590.029 317.209 590H291.805C263.658 590.015 240.827 565.271 240.806 534.727V465.636C240.827 435.092 263.658 410.348 291.805 410.364H317.209C324.809 410.334 332.022 414 336.867 420.355C341.713 426.71 343.68 435.085 342.23 443.182C338.749 461.957 336.831 481.034 336.5 500.182C336.831 519.33 338.749 538.407 342.23 557.182Z" fill="#31849B"/>
<path fill-rule="evenodd" clip-rule="evenodd" d="M559.149 465.636V534.727C559.128 565.271 536.297 590.015 508.151 590H482.747C475.146 590.029 467.933 586.363 463.088 580.009C458.243 573.654 456.275 565.278 457.725 557.182C461.207 538.407 463.124 519.33 463.455 500.182C463.124 481.034 461.207 461.957 457.725 443.182C456.275 435.085 458.243 426.71 463.088 420.355C467.933 414 475.146 410.334 482.747 410.364H508.151C536.297 410.348 559.128 435.092 559.149 465.636Z" fill="#31849B"/>
<path fill-rule="evenodd" clip-rule="evenodd" d="M571.119 369.047C569.444 371.032 567.434 372.65 565.198 373.814C563.473 374.714 561.623 375.298 559.722 375.542C551.43 376.873 543.311 372.159 539.73 363.934C529.675 340.362 516.052 318.784 499.428 300.095C471.159 268.865 436.523 251.455 399.978 251.455C363.432 251.455 328.733 268.865 300.527 300.095C283.903 318.784 270.281 340.362 260.225 363.934C257.077 371.217 250.32 375.853 242.907 375.818C241.946 375.829 240.987 375.736 240.042 375.542C238.209 375.264 236.427 374.682 234.758 373.814C232.444 372.632 230.384 370.938 228.709 368.84C223.609 362.651 222.43 353.745 225.717 346.247C262.899 260.92 328.032 210 399.978 210C471.923 210 537.056 260.92 574.302 346.247C577.57 353.849 576.315 362.837 571.119 369.047Z" fill="#31849B"/>
<path fill-rule="evenodd" clip-rule="evenodd" d="M240.806 486.087V499.905H240.743C232.273 499.909 224.199 496.017 218.522 489.196C212.391 481.9 209.345 472.158 210.118 462.32C212.382 430.389 218.636 398.941 228.709 368.84C230.384 370.938 232.444 372.632 234.758 373.814C236.427 374.681 238.209 375.264 240.042 375.542C230.741 403.881 224.94 433.433 222.788 463.425C222.313 469.436 224.158 475.39 227.882 479.869C231.177 483.805 235.842 486.06 240.743 486.087H240.806Z" fill="#333333"/>
<path fill-rule="evenodd" clip-rule="evenodd" d="M589.901 469.713C590.607 479.546 587.517 489.255 581.369 496.52C575.694 503.286 567.644 507.127 559.213 507.091L559.149 507.091V493.273C564.059 493.269 568.745 491.04 572.074 487.123C575.788 482.663 577.652 476.743 577.231 470.749C575.093 438.343 569.211 406.356 559.722 375.542C561.623 375.298 563.473 374.714 565.198 373.814C567.434 372.65 569.444 371.032 571.119 369.047C581.356 401.582 587.669 435.419 589.901 469.713Z" fill="#333333"/>
<path fill-rule="evenodd" clip-rule="evenodd" d="M266.274 527.818C262.757 527.818 259.907 524.725 259.907 520.909V472.545C259.907 468.73 262.757 465.636 266.274 465.636C269.79 465.636 272.641 468.73 272.641 472.545V520.909C272.641 524.725 269.79 527.818 266.274 527.818Z" fill="#444444"/>
<path fill-rule="evenodd" clip-rule="evenodd" d="M274.939 562.363C273.394 562.361 271.903 561.75 270.743 560.643C268.141 558.169 265.93 555.25 264.198 552C262.917 549.858 262.829 547.125 263.969 544.891C265.108 542.658 267.29 541.288 269.643 541.33C271.995 541.372 274.135 542.818 275.206 545.091C276.252 547.041 277.583 548.794 279.147 550.279C281.128 552.181 281.82 555.213 280.885 557.897C279.95 560.581 277.583 562.359 274.939 562.363Z" fill="#444444"/>
<path fill-rule="evenodd" clip-rule="evenodd" d="M285.374 568.381C284.833 568.382 284.294 568.308 283.77 568.16C278.942 566.791 274.476 564.214 270.731 560.636C268.96 559.024 268.135 556.497 268.573 554.034C269.011 551.572 270.645 549.56 272.841 548.779C275.037 547.998 277.451 548.569 279.148 550.273C281.395 552.419 284.075 553.964 286.972 554.784C290.075 555.657 292.096 558.896 291.69 562.346C291.285 565.796 288.579 568.381 285.374 568.381Z" fill="#444444"/>
<path fill-rule="evenodd" clip-rule="evenodd" d="M488.108 527.818C487.929 527.818 487.757 527.818 487.586 527.818C485.902 527.67 484.341 526.802 483.248 525.405C482.154 524.008 481.616 522.197 481.754 520.37C482.288 513.309 482.556 506.552 482.556 500.202C482.491 488.935 481.793 477.682 480.467 466.507C480.141 462.784 482.602 459.455 486.022 458.995C489.442 458.535 492.578 461.111 493.099 464.807C494.494 476.539 495.225 488.353 495.289 500.182C495.289 506.884 495.003 514.048 494.449 521.469C494.181 525.054 491.422 527.815 488.108 527.818Z" fill="#444444"/>
<path fill-rule="evenodd" clip-rule="evenodd" d="M482.747 569.273C482.343 569.272 481.94 569.23 481.544 569.148C478.094 568.43 475.832 564.816 476.488 561.071C476.889 558.764 477.278 556.498 477.641 554.245C478.291 550.527 481.576 548.069 485.01 548.731C488.444 549.393 490.747 552.93 490.177 556.663C489.795 558.971 489.413 561.306 488.993 563.662C488.419 566.915 485.799 569.269 482.747 569.273Z" fill="#444444"/>
</svg>
