<svg width="800" height="800" viewBox="0 0 800 800" fill="transparent" xmlns="http://www.w3.org/2000/svg">
<rect width="800" height="800" fill="transparent"/>
<path d="M697 228.849V571.149L397 749.999L97 571.149V228.849L397 49.9987L697 228.849ZM422 6.69873C414.399 2.31031 405.777 0 397 0C388.223 0 379.601 2.31031 372 6.69873L72 185.549C64.3992 189.937 58.0875 196.249 53.699 203.849C49.3106 211.45 47.0002 220.072 47 228.849V571.149C47.0002 579.925 49.3106 588.547 53.699 596.148C58.0875 603.749 64.3992 610.06 72 614.449L372 793.299C379.601 797.687 388.223 799.997 397 799.997C405.777 799.997 414.399 797.687 422 793.299L722 614.449C729.601 610.06 735.913 603.749 740.301 596.148C744.689 588.547 747 579.925 747 571.149V228.849C747 220.072 744.689 211.45 740.301 203.849C735.913 196.249 729.601 189.937 722 185.549L422 6.69873Z" fill="#31849B"/>
<path d="M370.25 281.379C365.922 277.935 360.055 276 353.939 276C347.822 276 341.956 277.935 337.628 281.379L183.75 404.001C179.428 407.449 177 412.126 177 416.999C177 421.875 179.428 426.549 183.75 429.997L337.628 552.619C341.956 556.065 347.822 558 353.939 558C360.055 558 365.922 556.065 370.25 552.619C374.572 549.171 377 544.497 377 539.621C377 534.748 374.572 530.072 370.25 526.623L232.683 416.999L370.25 307.375C374.572 303.926 377 299.251 377 294.377C377 289.503 374.572 284.828 370.25 281.379Z" fill="#31849B"/>
<path d="M608.248 361.759L454.371 238.944C449.995 235.69 444.209 233.919 438.229 234.003C432.25 234.087 426.544 236.02 422.315 239.396C418.087 242.771 415.665 247.325 415.557 252.097C415.452 256.87 417.671 261.489 421.749 264.981L559.315 374.777L421.749 484.574C417.428 488.03 415 492.712 415 497.592C415 502.476 417.428 507.157 421.749 510.611C426.076 514.062 431.945 516 438.06 516C444.178 516 450.044 514.062 454.371 510.611L608.248 387.796C612.572 384.342 615 379.66 615 374.777C615 369.897 612.572 365.215 608.248 361.759Z" fill="#31849B"/>
</svg>
