<svg width="683" height="804" viewBox="0 0 683 804" fill="none" xmlns="http://www.w3.org/2000/svg">
<rect width="683" height="804" fill="transparent"/>
<path d="M341.5 804C334.142 804.01 326.907 802.008 320.495 798.189L21.6829 619.48C15.1065 615.539 9.63512 609.823 5.82618 602.916C2.01724 596.008 0.00689944 588.156 0 580.159V223.841C0.00695405 215.844 2.01726 207.992 5.82611 201.084C9.63496 194.177 15.1062 188.461 21.6824 184.52L320.495 5.81143C326.91 2.00119 334.143 0 341.5 0C348.857 0 356.09 2.00119 362.505 5.81143L661.317 184.52C667.893 188.461 673.365 194.177 677.174 201.084C680.983 207.992 682.993 215.844 683 223.841V580.159C682.993 588.156 680.983 596.008 677.174 602.916C673.365 609.823 667.894 615.539 661.318 619.48L362.505 798.189C356.093 802.008 348.858 804.01 341.5 804ZM341.5 30.0879C339.048 30.0847 336.636 30.752 334.499 32.0251L35.6863 210.733C33.4941 212.047 31.6703 213.953 30.4006 216.255C29.1309 218.558 28.4607 221.175 28.4583 223.841V580.159C28.4607 582.825 29.1309 585.442 30.4007 587.745C31.6705 590.047 33.4945 591.953 35.6868 593.266L334.499 771.975C336.637 773.245 339.048 773.912 341.5 773.912C343.952 773.912 346.363 773.245 348.501 771.975L647.314 593.267C649.506 591.953 651.33 590.047 652.599 587.745C653.869 585.442 654.539 582.824 654.542 580.159V223.841C654.539 221.175 653.869 218.558 652.599 216.255C651.329 213.952 649.506 212.047 647.313 210.733L348.501 32.025C346.364 30.7519 343.952 30.0846 341.5 30.0879Z" fill="white"/>
<g clip-path="url(#clip0_0_1)">
<path d="M341.005 282C274.836 282 221.005 335.833 221.005 402C221.005 428.554 229.51 453.723 245.601 474.784C248.116 478.075 252.823 478.706 256.114 476.191C259.405 473.676 260.036 468.97 257.521 465.679C243.445 447.256 236.004 425.236 236.004 402.001C236.004 344.104 283.107 297.001 341.005 297.001C398.902 297.001 446.005 344.103 446.005 402C446.005 459.897 398.902 507 341.005 507C317.77 507 295.75 499.56 277.327 485.484C274.035 482.969 269.329 483.6 266.812 486.89C264.297 490.182 264.928 494.888 268.219 497.403C289.281 513.495 314.45 522 341.005 522C407.173 522 461.004 468.167 461.004 402C461.004 335.833 407.173 282 341.005 282Z" fill="white"/>
<path d="M341.005 242C252.779 242 181.004 313.776 181.004 402C181.004 490.224 252.779 562 341.005 562C429.23 562 501.005 490.224 501.005 402C501.005 313.776 429.229 242 341.005 242ZM341.005 547C261.051 547 196.005 481.952 196.005 402C196.005 322.048 261.052 257.001 341.005 257.001C420.957 257.001 486.005 322.047 486.005 402C486.005 481.953 420.958 547 341.005 547Z" fill="white"/>
<path d="M341 312.005C336.857 312.005 333.5 315.363 333.5 319.505V324.505C333.5 328.647 336.857 332.005 341 332.005C345.143 332.005 348.5 328.647 348.5 324.505V319.505C348.5 315.363 345.143 312.005 341 312.005Z" fill="white"/>
<path d="M308.745 331.139L306.246 326.808C304.176 323.221 299.589 321.99 296.001 324.063C292.414 326.134 291.185 330.721 293.256 334.307L295.756 338.638C297.145 341.044 299.666 342.39 302.258 342.39C303.53 342.39 304.82 342.066 306.001 341.384C309.587 339.313 310.816 334.726 308.745 331.139Z" fill="white"/>
<path d="M277.633 356.76L273.303 354.26C269.713 352.188 265.127 353.417 263.057 357.005C260.985 360.592 262.215 365.178 265.802 367.25L270.132 369.75C271.314 370.432 272.603 370.756 273.875 370.756C276.467 370.756 278.988 369.411 280.376 367.005C282.449 363.418 281.22 358.831 277.633 356.76Z" fill="white"/>
<path d="M263.499 394.505H258.499C254.357 394.505 251 397.863 251 402.005C251 406.147 254.357 409.504 258.499 409.504H263.499C267.642 409.504 270.999 406.147 270.999 402.005C271 397.863 267.643 394.505 263.499 394.505Z" fill="white"/>
<path d="M280.378 437.005C278.307 433.417 273.718 432.189 270.134 434.26L265.804 436.76C262.216 438.831 260.988 443.418 263.059 447.005C264.449 449.411 266.969 450.756 269.561 450.756C270.833 450.756 272.123 450.432 273.303 449.75L277.633 447.25C281.22 445.179 282.449 440.592 280.378 437.005Z" fill="white"/>
<path d="M306 462.627C302.409 460.555 297.824 461.784 295.754 465.372L293.255 469.702C291.184 473.29 292.413 477.876 295.999 479.947C297.182 480.629 298.47 480.954 299.742 480.954C302.334 480.954 304.855 479.609 306.244 477.203L308.743 472.873C310.816 469.285 309.587 464.698 306 462.627Z" fill="white"/>
<path d="M341 472.005C336.857 472.005 333.5 475.363 333.5 479.505V484.505C333.5 488.647 336.857 492.005 341 492.005C345.143 492.005 348.5 488.647 348.5 484.505V479.505C348.5 475.363 345.143 472.005 341 472.005Z" fill="white"/>
<path d="M388.745 469.702L386.246 465.372C384.174 461.784 379.586 460.555 376 462.627C372.413 464.698 371.185 469.285 373.256 472.873L375.755 477.203C377.145 479.609 379.665 480.954 382.257 480.954C383.53 480.954 384.82 480.629 386 479.947C389.587 477.876 390.816 473.288 388.745 469.702Z" fill="white"/>
<path d="M416.197 436.76L411.867 434.26C408.278 432.188 403.692 433.419 401.622 437.005C399.551 440.592 400.78 445.179 404.366 447.25L408.696 449.75C409.879 450.432 411.168 450.756 412.44 450.756C415.032 450.756 417.553 449.411 418.942 447.005C421.013 443.418 419.784 438.831 416.197 436.76Z" fill="white"/>
<path d="M423.5 394.505H418.5C414.357 394.505 411 397.863 411 402.005C411 406.147 414.357 409.504 418.5 409.504H423.5C427.643 409.504 431 406.147 431 402.005C431 397.863 427.643 394.505 423.5 394.505Z" fill="white"/>
<path d="M418.942 357.005C416.87 353.417 412.283 352.188 408.696 354.26L404.366 356.76C400.779 358.831 399.551 363.418 401.622 367.005C403.011 369.411 405.531 370.756 408.124 370.756C409.396 370.756 410.687 370.432 411.866 369.75L416.196 367.25C419.784 365.179 421.013 360.592 418.942 357.005Z" fill="white"/>
<path d="M386 324.061C382.409 321.988 377.823 323.219 375.755 326.806L373.255 331.137C371.185 334.726 372.414 339.313 376 341.383C377.183 342.065 378.471 342.389 379.743 342.389C382.335 342.389 384.856 341.043 386.245 338.637L388.744 334.306C390.816 330.719 389.587 326.132 386 324.061Z" fill="white"/>
<path d="M341 347.005C336.857 347.005 333.5 350.363 333.5 354.505V394.505H303.5C299.357 394.505 296 397.863 296 402.005C296 406.146 299.357 409.504 303.5 409.504H341C345.143 409.504 348.5 406.146 348.5 402.005V354.504C348.5 350.363 345.143 347.005 341 347.005Z" fill="white"/>
<path d="M173.5 242C169.357 242 166 245.358 166 249.5V297H151.001V249.5C151.001 245.358 147.644 242 143.501 242C139.358 242 136.001 245.358 136.001 249.5V297H121V249.5C121 245.358 117.643 242 113.5 242C109.357 242 106 245.358 106 249.5V324.5C106 336.33 111.652 347.458 121 354.49V539.5C121 551.907 131.094 562 143.5 562C155.906 562 166 551.907 166 539.5V354.49C175.348 347.458 181 336.33 181 324.5V249.5C181 245.358 177.643 242 173.5 242ZM166 324.5C166 332.501 161.688 339.967 154.743 343.984C152.427 345.326 151.001 347.8 151.001 350.476V539.499C151.001 543.635 147.636 546.999 143.501 546.999C139.365 546.999 136.001 543.634 136.001 539.499V350.477C136.001 347.8 134.574 345.327 132.258 343.986C125.314 339.967 121.001 332.502 121.001 324.501V312.001H166.001L166 324.5Z" fill="white"/>
<path d="M546 242C529.458 242 516 255.458 516 272V389.5C516 406.042 529.458 419.5 546 419.5H560.999V539.5C560.999 543.636 557.635 547 553.5 547C549.363 547 546 543.635 546 539.499L545.99 441.999C545.99 437.857 542.632 434.499 538.489 434.5C534.347 434.5 530.99 437.858 530.99 442.001L531 539.5C531 551.907 541.094 562 553.501 562C565.907 562 576.001 551.907 576.001 539.5V272C576 255.458 562.542 242 546 242ZM561 404.5H546.001C537.73 404.5 531.001 397.771 531.001 389.5V272C531.001 263.729 537.73 257.001 546.001 257.001C554.272 257.001 561 263.729 561 272V404.5Z" fill="white"/>
</g>
<defs>
<clipPath id="clip0_0_1">
<rect width="470" height="470" fill="white" transform="translate(106 167)"/>
</clipPath>
</defs>
</svg>
