<svg width="800" height="800" viewBox="0 0 800 800" fill="none" xmlns="http://www.w3.org/2000/svg">
<rect width="800" height="800" fill="transparent"/>
<g clip-path="url(#clip0_0_1)">
<path d="M406 800C398.675 800.01 391.471 798.018 385.088 794.217L87.588 616.398C81.04 612.476 75.593 606.789 71.801 599.916C68.008 593.043 66.007 585.23 66 577.272V222.727C66.007 214.77 68.008 206.957 71.801 200.084C75.593 193.211 81.04 187.524 87.587 183.602L385.088 5.78251C391.474 1.99123 398.676 0 406 0C413.324 0 420.526 1.99123 426.912 5.78251L724.412 183.602C730.96 187.523 736.407 193.211 740.199 200.084C743.992 206.957 745.993 214.77 746 222.727V577.272C745.993 585.23 743.992 593.043 740.2 599.916C736.407 606.789 730.96 612.476 724.413 616.398L426.912 794.217C420.529 798.018 413.325 800.01 406 800ZM406 29.9382C403.558 29.935 401.157 30.599 399.03 31.8657L101.529 209.685C99.347 210.992 97.531 212.888 96.267 215.179C95.003 217.47 94.336 220.075 94.333 222.727V577.272C94.336 579.925 95.003 582.53 96.267 584.821C97.531 587.112 99.347 589.008 101.53 590.315L399.03 768.134C401.158 769.398 403.559 770.061 406 770.061C408.441 770.061 410.842 769.398 412.971 768.134L710.471 590.315C712.653 589.008 714.469 587.112 715.733 584.821C716.997 582.529 717.664 579.925 717.667 577.272V222.727C717.664 220.075 716.997 217.47 715.733 215.179C714.469 212.888 712.653 210.992 710.47 209.685L412.971 31.8656C410.843 30.5989 408.442 29.935 406 29.9382Z" fill="white"/>
<mask id="mask0_0_1" style="mask-type:luminance" maskUnits="userSpaceOnUse" x="249" y="225" width="350" height="350">
<path d="M599 225H249V575H599V225Z" fill="white"/>
</mask>
<g mask="url(#mask0_0_1)">
<path d="M463.516 518.548H260.29V270.161H463.516H469.161H474.806V241.935C474.806 232.598 467.208 225 457.871 225H265.935C256.598 225 249 232.598 249 241.935V558.065C249 567.402 256.598 575 265.935 575H457.871C467.208 575 474.806 567.402 474.806 558.065V518.548H469.161H463.516ZM260.29 241.935C260.29 238.819 262.819 236.29 265.935 236.29H457.871C460.987 236.29 463.516 238.819 463.516 241.935V258.871H260.29V241.935ZM463.516 558.065C463.516 561.181 460.987 563.71 457.871 563.71H265.935C262.819 563.71 260.29 561.181 260.29 558.065V529.839H463.516V558.065Z" fill="white"/>
<path d="M384.484 541.129H339.323V552.419H384.484V541.129Z" fill="white"/>
<path d="M446.581 337.903C446.581 306.776 421.256 281.452 390.129 281.452C359.002 281.452 333.677 306.776 333.677 337.903C333.677 369.031 359.002 394.355 390.129 394.355C421.256 394.355 446.581 369.031 446.581 337.903ZM344.968 337.903C344.968 313.002 365.228 292.742 390.129 292.742C415.03 292.742 435.29 313.002 435.29 337.903C435.29 362.804 415.03 383.064 390.129 383.064C365.228 383.064 344.968 362.804 344.968 337.903Z" fill="white"/>
<path d="M576.419 281.452H435.29V292.742H576.419V281.452Z" fill="white"/>
<path d="M599 281.452H587.71V292.742H599V281.452Z" fill="white"/>
<path d="M565.129 383.065H435.29V394.355H565.129V383.065Z" fill="white"/>
<path d="M587.71 383.065H576.419V394.355H587.71V383.065Z" fill="white"/>
<path d="M565.129 315.323H457.871V326.613H565.129V315.323Z" fill="white"/>
<path d="M587.71 315.323H576.419V326.613H587.71V315.323Z" fill="white"/>
<path d="M576.419 349.194H469.161V360.484H576.419V349.194Z" fill="white"/>
<path d="M599 349.194H587.71V360.484H599V349.194Z" fill="white"/>
<path d="M395.774 377.419V366.129C405.111 366.129 412.71 358.531 412.71 349.194C412.71 339.856 405.111 332.258 395.774 332.258H384.484C381.368 332.258 378.839 329.729 378.839 326.613C378.839 323.497 381.368 320.968 384.484 320.968H395.774C398.89 320.968 401.419 323.497 401.419 326.613H412.71C412.71 317.276 405.111 309.677 395.774 309.677V298.387H384.484V309.677C375.147 309.677 367.548 317.276 367.548 326.613C367.548 335.95 375.147 343.548 384.484 343.548H395.774C398.89 343.548 401.419 346.077 401.419 349.194C401.419 352.31 398.89 354.839 395.774 354.839H384.484C381.368 354.839 378.839 352.31 378.839 349.194H367.548C367.548 358.531 375.147 366.129 384.484 366.129V377.419H395.774Z" fill="white"/>
<path d="M519.968 450.806H587.275L578.169 473.562C577.588 473.506 577.018 473.387 576.419 473.387C569.069 473.387 562.86 478.123 560.523 484.677H535.859C533.77 478.812 528.571 474.477 522.226 473.619L507.102 428.226H486.097V439.516H498.962L511.11 475.956C506.284 478.942 503.032 484.243 503.032 490.323C503.032 499.66 510.631 507.258 519.968 507.258C527.318 507.258 533.527 502.522 535.865 495.968H560.528C562.865 502.522 569.075 507.258 576.425 507.258C585.762 507.258 593.36 499.66 593.36 490.323C593.36 485.665 591.469 481.443 588.415 478.377L599 451.89V439.516H519.968V450.806ZM519.968 495.968C516.852 495.968 514.323 493.439 514.323 490.323C514.323 488.352 515.395 486.704 516.925 485.694L519.968 484.677C523.084 484.677 525.613 487.206 525.613 490.323C525.613 493.439 523.084 495.968 519.968 495.968ZM576.419 495.968C573.303 495.968 570.774 493.439 570.774 490.323C570.774 487.206 573.303 484.677 576.419 484.677C579.535 484.677 582.065 487.206 582.065 490.323C582.065 493.439 579.535 495.968 576.419 495.968Z" fill="white"/>
<path d="M491.742 495.968H373.194V507.258H491.742V495.968Z" fill="white"/>
<path d="M361.903 495.968H350.613V507.258H361.903V495.968Z" fill="white"/>
<path d="M491.742 462.097H384.484V473.387H491.742V462.097Z" fill="white"/>
<path d="M474.806 428.226H373.194V439.516H474.806V428.226Z" fill="white"/>
<path d="M361.903 428.226H350.613V439.516H361.903V428.226Z" fill="white"/>
<path d="M373.194 462.097H361.903V473.387H373.194V462.097Z" fill="white"/>
</g>
</g>
<defs>
<clipPath id="clip0_0_1">
<rect width="800" height="800" fill="white"/>
</clipPath>
</defs>
</svg>
