<svg width="680" height="800" viewBox="0 0 680 800" fill="none" xmlns="http://www.w3.org/2000/svg">
<rect width="680" height="800" fill="transparent"/>
<path d="M340 800C332.675 800.01 325.471 798.018 319.088 794.217L21.5877 616.398C15.0402 612.476 9.5928 606.789 5.80059 599.916C2.00838 593.043 0.00686913 585.23 0 577.272V222.727C0.0069235 214.77 2.0084 206.957 5.80052 200.084C9.59264 193.211 15.0399 187.524 21.5872 183.602L319.088 5.78251C325.474 1.99123 332.676 0 340 0C347.324 0 354.526 1.99123 360.912 5.78251L658.412 183.602C664.96 187.523 670.407 193.211 674.199 200.084C677.992 206.957 679.993 214.77 680 222.727V577.272C679.993 585.23 677.992 593.043 674.2 599.916C670.407 606.789 664.96 612.476 658.413 616.398L360.912 794.217C354.529 798.018 347.325 800.01 340 800ZM340 29.9382C337.558 29.935 335.157 30.599 333.03 31.8657L35.5295 209.685C33.347 210.992 31.5312 212.888 30.2671 215.179C29.003 217.47 28.3357 220.075 28.3333 222.727V577.272C28.3357 579.925 29.003 582.53 30.2672 584.821C31.5314 587.112 33.3474 589.008 35.53 590.315L333.03 768.134C335.158 769.398 337.559 770.061 340 770.061C342.441 770.061 344.842 769.398 346.971 768.134L644.471 590.315C646.653 589.008 648.469 587.112 649.733 584.821C650.997 582.529 651.664 579.925 651.667 577.272V222.727C651.664 220.075 650.997 217.47 649.733 215.179C648.469 212.888 646.653 210.992 644.47 209.685L346.971 31.8656C344.843 30.5989 342.442 29.935 340 29.9382Z" fill="white"/>
<path d="M204.725 368.805C204.095 362.912 201.442 358.324 196.763 355.04C192.13 351.757 186.103 350.115 178.681 350.115C173.463 350.115 168.988 350.902 165.254 352.477C161.521 354.051 158.665 356.187 156.685 358.886C154.706 361.585 153.694 364.666 153.649 368.13C153.649 371.009 154.301 373.505 155.606 375.619C156.955 377.733 158.777 379.533 161.071 381.017C163.365 382.456 165.906 383.671 168.695 384.661C171.484 385.65 174.295 386.482 177.129 387.157L190.084 390.396C195.302 391.61 200.317 393.252 205.13 395.321C209.988 397.39 214.329 399.999 218.152 403.148C222.02 406.296 225.079 410.097 227.328 414.55C229.577 419.004 230.702 424.221 230.702 430.204C230.702 438.3 228.633 445.43 224.494 451.592C220.356 457.71 214.374 462.5 206.547 465.964C198.765 469.382 189.342 471.092 178.276 471.092C167.526 471.092 158.192 469.427 150.276 466.099C142.404 462.77 136.241 457.912 131.788 451.525C127.38 445.138 124.996 437.356 124.636 428.18H149.263C149.623 432.993 151.108 436.996 153.717 440.19C156.326 443.383 159.722 445.767 163.905 447.342C168.133 448.916 172.856 449.703 178.074 449.703C183.517 449.703 188.285 448.893 192.378 447.274C196.516 445.61 199.755 443.316 202.094 440.392C204.433 437.423 205.625 433.96 205.67 430.001C205.625 426.403 204.568 423.434 202.499 421.095C200.429 418.711 197.528 416.732 193.795 415.158C190.106 413.538 185.788 412.099 180.84 410.839L165.119 406.791C153.739 403.867 144.743 399.437 138.131 393.499C131.563 387.517 128.28 379.578 128.28 369.682C128.28 361.54 130.484 354.411 134.892 348.293C139.345 342.176 145.395 337.43 153.042 334.057C160.689 330.638 169.348 328.929 179.018 328.929C188.824 328.929 197.416 330.638 204.793 334.057C212.214 337.43 218.04 342.131 222.268 348.158C226.496 354.141 228.678 361.023 228.812 368.805H204.725ZM337.56 488.162C323.391 488.162 310.796 486.228 299.776 482.359C288.8 478.536 279.534 472.913 271.977 465.491C264.421 458.025 258.686 448.938 254.772 438.233C250.859 427.527 248.88 415.293 248.835 401.528C248.88 388.079 250.881 375.957 254.84 365.161C258.798 354.321 264.578 345.055 272.18 337.363C279.782 329.626 289.07 323.689 300.046 319.55C311.021 315.412 323.503 313.343 337.492 313.343C350.672 313.343 362.344 315.345 372.51 319.348C382.721 323.351 391.335 328.929 398.352 336.081C405.414 343.188 410.744 351.509 414.343 361.045C417.986 370.536 419.808 380.837 419.808 391.947C419.808 399.639 419.223 406.926 418.053 413.808C416.884 420.645 414.882 426.718 412.048 432.026C409.26 437.333 405.459 441.562 400.646 444.71C395.833 447.814 389.805 449.501 382.563 449.771C378.02 449.996 374.039 449.568 370.621 448.489C367.202 447.409 364.436 445.722 362.322 443.428C360.253 441.089 358.948 438.233 358.409 434.859H357.599C356.564 437.558 354.608 440.032 351.729 442.281C348.895 444.485 345.387 446.217 341.203 447.477C337.02 448.691 332.365 449.186 327.237 448.961C321.749 448.691 316.666 447.432 311.988 445.183C307.355 442.888 303.307 439.695 299.843 435.602C296.425 431.463 293.771 426.47 291.882 420.623C289.992 414.775 289.048 408.141 289.048 400.719C289.048 393.477 290.082 387.089 292.151 381.557C294.221 376.024 296.987 371.301 300.45 367.388C303.959 363.474 307.917 360.416 312.325 358.212C316.734 355.963 321.277 354.523 325.955 353.893C330.813 353.219 335.378 353.286 339.651 354.096C343.925 354.906 347.478 356.143 350.312 357.807C353.191 359.471 354.99 361.293 355.71 363.272H356.654V355.715H375.479V419.948C375.524 423.322 376.334 426.043 377.908 428.112C379.527 430.181 381.776 431.216 384.655 431.216C388.253 431.216 391.155 429.799 393.359 426.965C395.608 424.086 397.227 419.678 398.217 413.741C399.251 407.758 399.746 400.112 399.701 390.8C399.746 383.154 398.734 376.227 396.665 370.019C394.641 363.767 391.762 358.279 388.029 353.556C384.295 348.833 379.82 344.897 374.602 341.749C369.429 338.555 363.671 336.148 357.329 334.529C350.987 332.91 344.217 332.1 337.02 332.1C326 332.1 316.306 333.787 307.94 337.161C299.573 340.489 292.556 345.235 286.889 351.397C281.266 357.559 277.015 364.869 274.137 373.325C271.303 381.737 269.886 391.048 269.886 401.259C269.886 412.189 271.37 421.882 274.339 430.339C277.353 438.75 281.761 445.835 287.563 451.592C293.366 457.35 300.54 461.713 309.087 464.682C317.678 467.651 327.552 469.135 338.707 469.135C343.835 469.135 348.85 468.73 353.753 467.92C358.656 467.111 363.064 466.166 366.977 465.087C370.891 464.007 373.905 463.062 376.019 462.253L381.754 479.391C378.965 480.83 375.186 482.224 370.419 483.574C365.695 484.923 360.478 486.025 354.765 486.88C349.097 487.735 343.362 488.162 337.56 488.162ZM332.837 429.597C338.549 429.597 343.115 428.495 346.534 426.29C349.952 424.041 352.404 420.713 353.888 416.305C355.372 411.897 356.092 406.409 356.047 399.842C356.047 393.724 355.282 388.709 353.753 384.795C352.224 380.882 349.772 377.981 346.399 376.092C343.025 374.202 338.549 373.258 332.972 373.258C327.934 373.258 323.638 374.405 320.085 376.699C316.576 378.993 313.877 382.164 311.988 386.212C310.144 390.216 309.222 394.781 309.222 399.909C309.222 405.037 309.964 409.872 311.448 414.415C312.978 418.914 315.452 422.58 318.87 425.413C322.334 428.202 326.989 429.597 332.837 429.597ZM436.76 351.802V330.818H547.009V351.802H504.299V469H479.469V351.802H436.76Z" fill="white"/>
</svg>
