<svg width="800" height="800" viewBox="0 0 800 800" fill="none" xmlns="http://www.w3.org/2000/svg">
<rect width="800" height="800" fill="transparent"/>
<g clip-path="url(#clip0_0_1)">
<path d="M800 0H0V800H800V0Z" fill="transparent"/>
<path d="M697 228.849V571.149L397 749.999L97 571.149V228.849L397 49.9987L697 228.849ZM422 6.69873C414.399 2.31031 405.777 0 397 0C388.223 0 379.601 2.31031 372 6.69873L72 185.549C64.3992 189.937 58.0875 196.249 53.699 203.849C49.3106 211.45 47.0002 220.072 47 228.849V571.149C47.0002 579.925 49.3106 588.547 53.699 596.148C58.0875 603.749 64.3992 610.06 72 614.449L372 793.299C379.601 797.687 388.223 799.997 397 799.997C405.777 799.997 414.399 797.687 422 793.299L722 614.449C729.601 610.06 735.913 603.749 740.301 596.148C744.689 588.547 747 579.925 747 571.149V228.849C747 220.072 744.689 211.45 740.301 203.849C735.913 196.249 729.601 189.937 722 185.549L422 6.69873Z" fill="#31849B"/>
<g clip-path="url(#clip1_0_1)">
<path d="M520.393 264.187C508.805 274.452 494.568 285.524 480.736 288.332C455.057 293.552 427.441 281.538 406.23 284.751C404.85 284.966 403.519 285.217 402.202 285.441C398.578 284.506 394.766 283.726 390.739 283.113C387.833 282.673 384.913 282.492 382 282.492C373.652 282.512 365.29 283.893 357.019 285.161C348.74 286.443 340.566 287.641 332.852 287.641C328.789 287.641 324.866 287.321 321.104 286.541C315.995 285.524 310.441 282.959 304.874 279.371C299.292 275.809 293.718 271.238 288.435 266.57C286.01 264.395 283.259 262.737 280.359 261.629C277.453 260.528 274.394 260.02 271.404 260.027C266.652 260.027 262.073 261.253 257.76 263.163C253.955 264.856 250.318 267.099 246.792 269.748C240.611 274.354 234.744 280.214 229.309 286.765C221.17 296.604 213.985 308.012 208.73 319.266C206.104 324.909 203.95 330.512 202.431 335.934C200.912 341.355 200 346.581 200 351.612C200 354.261 200.25 356.866 200.892 359.403C201.533 361.961 202.571 364.469 204.14 366.734C204.62 367.43 205.129 367.988 205.798 368.49C205.896 368.573 209.241 371.236 212.871 374.705C214.69 376.454 216.572 378.399 218.139 380.266C219.693 382.078 220.905 383.89 221.359 384.901C223.413 389.256 228.647 399.877 235.595 411.757C239.078 417.694 242.995 423.945 247.196 429.909C249.322 432.906 251.524 435.854 253.782 438.641C247.629 446.264 247.664 457.455 254.395 465.03C261.893 473.504 274.826 474.277 283.286 466.773L283.871 466.249C280.227 473.518 281.112 482.577 286.832 489.029C294.323 497.489 307.263 498.269 315.73 490.764L319.055 487.739C314.511 495.202 315.117 505.07 321.215 511.955C328.727 520.4 341.66 521.181 350.127 513.704L355.241 509.062C350.412 516.589 350.929 526.672 357.138 533.682C364.628 542.142 377.569 542.929 386.035 535.425L394.313 528.317C395.094 528.693 395.854 529.034 396.558 529.362L402.216 532.665L402.167 532.623C404.997 534.309 407.923 535.675 410.969 536.63C414.007 537.584 417.164 538.142 420.377 538.142C423.854 538.142 427.401 537.473 430.731 535.995C434.048 534.533 437.101 532.261 439.637 529.39C442.669 525.974 444.683 521.968 445.707 517.795C448.724 518.888 451.888 519.438 455.023 519.438C458.794 519.438 462.564 518.658 466.082 517.112C469.595 515.565 472.849 513.245 475.545 510.199C478.891 506.437 481.002 501.955 481.914 497.314C483.713 497.677 485.524 497.878 487.336 497.878C491.127 497.878 494.896 497.112 498.408 495.552C501.927 494.011 505.181 491.684 507.878 488.645C511.543 484.52 513.711 479.537 514.449 474.437C515.244 474.506 516.03 474.534 516.804 474.534C521.334 474.534 525.78 473.558 529.905 471.816C534.002 470.06 537.827 467.51 540.901 464.06C543.758 460.82 545.918 457.043 547.465 452.973C549.005 448.89 549.904 444.534 549.918 440.068C549.918 438.437 549.778 436.793 549.5 435.163C565.269 417.616 573.617 388.391 577.234 380.725C581.402 371.861 597.143 359.276 597.143 359.276C614.118 334.777 551.207 236.878 520.393 264.187ZM532.148 447.191C531.256 449.574 529.946 451.762 528.658 453.198C527.48 454.543 525.64 455.846 523.494 456.766C521.355 457.672 518.937 458.166 516.804 458.166C515.404 458.166 514.114 457.95 513.069 457.602C513.006 457.574 512.943 457.554 512.895 457.532L489.537 434.996C486.275 431.861 481.098 431.959 477.962 435.205C474.82 438.46 474.91 443.645 478.163 446.78L496.999 464.962C497.076 465.142 497.124 465.317 497.215 465.498C497.988 467.038 498.393 468.766 498.393 470.48C498.393 473.114 497.501 475.665 495.612 477.784C494.518 479.038 493.222 479.945 491.807 480.571C490.406 481.198 488.873 481.519 487.334 481.519C484.713 481.505 482.163 480.612 480.03 478.731L479.557 478.299C479.452 478.202 479.397 478.09 479.299 477.979L458.826 456.613C455.698 453.339 450.512 453.227 447.265 456.348C443.997 459.47 443.878 464.669 446.993 467.93L464.365 486.062C464.4 486.125 464.427 486.202 464.462 486.257C465.529 487.999 466.066 490.006 466.066 492.02C466.059 494.661 465.166 497.219 463.284 499.344H463.291C462.184 500.584 460.888 501.49 459.487 502.131C458.08 502.745 456.546 503.051 455.02 503.051C452.386 503.051 449.815 502.159 447.689 500.285L447.376 500.027L441.048 494.94L430.672 483.93C427.571 480.648 422.38 480.495 419.098 483.596C415.808 486.69 415.655 491.888 418.755 495.171L428.602 505.616C429.612 507.331 430.156 509.268 430.156 511.233C430.135 513.853 429.25 516.417 427.383 518.522C426.254 519.797 425.187 520.536 424.08 521.031C422.972 521.513 421.794 521.77 420.373 521.777C419.055 521.777 417.557 521.546 415.885 521.016C414.213 520.487 412.408 519.665 410.54 518.564L410.491 518.522L407.593 516.849C415.599 509.295 416.226 496.704 408.874 488.404C401.473 480.07 388.777 479.22 380.325 486.398L381.851 485.018C390.324 477.527 391.098 464.587 383.593 456.127C376.109 447.667 363.162 446.888 354.702 454.385L349.684 458.908C354.534 451.403 354.019 441.299 347.803 434.288C340.298 425.829 327.372 425.041 318.905 432.546L312.244 438.609C315.366 431.529 314.334 422.951 308.85 416.777C301.352 408.31 288.412 407.537 279.959 415.027L265.863 427.529C264.085 425.305 262.308 422.929 260.566 420.462C254.797 412.268 249.375 403.125 245.076 395.293C240.783 387.46 237.57 380.91 236.17 377.921C235.43 376.353 234.553 374.918 233.605 373.538C231.946 371.155 230.044 368.911 228.106 366.848C225.222 363.733 222.212 360.987 219.912 358.987C218.811 358.026 217.877 357.224 217.18 356.66C217.034 356.332 216.895 355.936 216.77 355.434C216.533 354.473 216.365 353.184 216.365 351.616C216.365 349.023 216.818 345.734 217.745 342.027C219.368 335.56 222.455 327.916 226.511 320.299C232.594 308.83 240.908 297.332 249.381 289.08C253.618 284.934 257.869 281.624 261.73 279.471C263.652 278.405 265.472 277.611 267.095 277.123C268.718 276.621 270.161 276.398 271.401 276.398C272.592 276.405 273.596 276.586 274.578 276.941C275.54 277.332 276.516 277.876 277.575 278.816C283.184 283.798 289.338 288.864 296.034 293.157C302.709 297.429 309.943 300.983 317.838 302.599C322.904 303.63 327.921 304.006 332.848 304.006C342.192 303.999 351.189 302.627 359.516 301.345C361.613 301.01 363.662 300.703 365.67 300.397C359.419 304.703 353.37 309.811 346.938 315.811C328.584 332.932 312.758 353.845 303.978 363.349C295.205 372.841 311.525 389.314 337.503 381.76C363.467 374.22 374.659 354.848 374.659 354.848L407.264 343.148L439.625 350.555L517.845 420.978L531.364 434.051L531.629 434.274C532.172 434.776 532.59 435.361 532.952 436.309C533.301 437.256 533.538 438.538 533.538 440.072C533.549 442.223 533.062 444.808 532.148 447.191Z" fill="#31849B"/>
</g>
</g>
<defs>
<clipPath id="clip0_0_1">
<rect width="800" height="800" fill="transparent"/>
</clipPath>
<clipPath id="clip1_0_1">
<rect width="400" height="400" fill="transparent" transform="translate(200 200)"/>
</clipPath>
</defs>
</svg>
