<svg width="800" height="800" viewBox="0 0 800 800" fill="none" xmlns="http://www.w3.org/2000/svg">
<rect width="800" height="800" fill="transparent"/>
<g clip-path="url(#clip0_0_1)">
<path d="M800 0H0V800H800V0Z" fill="transparent"/>
<path d="M697 228.849V571.149L397 749.999L97 571.149V228.849L397 49.9987L697 228.849ZM422 6.69873C414.399 2.31031 405.777 0 397 0C388.223 0 379.601 2.31031 372 6.69873L72 185.549C64.3992 189.937 58.0875 196.249 53.699 203.849C49.3106 211.45 47.0002 220.072 47 228.849V571.149C47.0002 579.925 49.3106 588.547 53.699 596.148C58.0875 603.749 64.3992 610.06 72 614.449L372 793.299C379.601 797.687 388.223 799.997 397 799.997C405.777 799.997 414.399 797.687 422 793.299L722 614.449C729.601 610.06 735.913 603.749 740.301 596.148C744.689 588.547 747 579.925 747 571.149V228.849C747 220.072 744.689 211.45 740.301 203.849C735.913 196.249 729.601 189.937 722 185.549L422 6.69873Z" fill="#31849B"/>
<path d="M346.242 244.15C374.966 244.15 398.252 267.436 398.252 296.159C398.252 324.883 374.966 348.169 346.242 348.169C317.519 348.169 294.233 324.883 294.233 296.159C294.233 267.436 317.517 244.15 346.242 244.15ZM262.441 439.08C262.441 435.175 264.95 432.527 268.994 432.527C273.037 432.527 275.547 435.036 275.547 439.08V584.37H418.467V439.08C418.467 435.175 420.977 432.527 425.02 432.527C428.925 432.527 431.573 435.036 431.573 439.08V584.37H477.03V425.973C477.03 390.139 447.748 360.997 412.053 360.997H398.947L360.742 420.395L356.141 375.916L362.416 360.856H334.25L340.525 375.916L335.645 420.673L297.439 360.997H282.102C246.267 360.997 217.125 390.278 217.125 425.973V584.372H262.581V439.081L262.441 439.08ZM514.123 385.438H562.161V394.995H514.123V385.438ZM545.347 414.261H530.936C525.63 414.261 521.328 409.959 521.328 404.653V402.252H554.955V404.653C554.955 409.959 550.653 414.261 545.347 414.261ZM536.925 260.555C509.38 261.203 487.261 284.269 487.709 311.817C487.922 324.841 493.07 336.666 501.366 345.5C509.436 354.095 514.122 365.317 514.122 377.109V378.184H534.537V336.2H524.93V328.994H551.35V336.2H541.742V378.183H562.158V377.106C562.158 365.336 566.809 354.113 574.875 345.542C583.372 336.514 588.578 324.356 588.578 310.98C588.581 282.719 565.337 259.886 536.925 260.555ZM545.039 215.625H535.628V246.898H545.039V215.625ZM610.875 248.527L604.22 241.872L582.106 263.984L588.761 270.639L610.875 248.527ZM489.061 270.641L495.716 263.986L473.602 241.872L466.947 248.527L489.061 270.641Z" fill="#31849B"/>
</g>
<defs>
<clipPath id="clip0_0_1">
<rect width="800" height="800" fill="transparent"/>
</clipPath>
</defs>
</svg>
