<svg width="800" height="800" viewBox="0 0 800 800" fill="none" xmlns="http://www.w3.org/2000/svg">
<rect width="800" height="800" fill="transparent"/>
<g clip-path="url(#clip0_0_1)">
<path d="M800 0H0V800H800V0Z" fill="transparent"/>
<path d="M697 228.849V571.149L397 749.999L97 571.149V228.849L397 49.9987L697 228.849ZM422 6.69873C414.399 2.31031 405.777 0 397 0C388.223 0 379.601 2.31031 372 6.69873L72 185.549C64.3992 189.937 58.0875 196.249 53.699 203.849C49.3106 211.45 47.0002 220.072 47 228.849V571.149C47.0002 579.925 49.3106 588.547 53.699 596.148C58.0875 603.749 64.3992 610.06 72 614.449L372 793.299C379.601 797.687 388.223 799.997 397 799.997C405.777 799.997 414.399 797.687 422 793.299L722 614.449C729.601 610.06 735.913 603.749 740.301 596.148C744.689 588.547 747 579.925 747 571.149V228.849C747 220.072 744.689 211.45 740.301 203.849C735.913 196.249 729.601 189.937 722 185.549L422 6.69873Z" fill="#31849B"/>
<g clip-path="url(#clip1_0_1)">
<path d="M571.714 557.559L542.549 411.729C541.178 404.919 535.199 400.005 528.243 400.005H471.559C472.726 398.197 473.878 396.344 475.029 394.536L483.342 381.455C493.637 365.181 499.077 346.383 499.077 327.09C499.077 298.041 486.652 270.275 464.953 250.909C443.283 231.557 414.117 222.283 385.068 225.695C339.7 230.858 302.207 267.402 295.937 312.58C292.218 339.355 298.912 365.94 314.763 387.464C317.768 391.533 320.465 395.82 323.324 400.006H265.75C258.808 400.006 252.83 404.92 251.459 411.73L222.293 557.559C221.432 561.846 222.541 566.279 225.311 569.663C228.082 573.031 232.209 575 236.584 575H557.408C561.783 575 565.91 573.031 568.696 569.663C571.452 566.28 572.561 561.846 571.714 557.559ZM396.997 283.341C421.132 283.341 440.745 302.97 440.745 327.09C440.745 351.21 421.132 370.839 396.997 370.839C372.877 370.839 353.248 351.21 353.248 327.09C353.248 302.97 372.876 283.341 396.997 283.341ZM254.375 545.834L277.708 429.17H341.858C341.902 429.243 341.946 429.331 341.989 429.403C351.352 445.284 360.043 461.544 367.976 476.944C371.33 483.521 374.684 490.069 378.024 496.733L383.959 508.603C386.439 513.547 391.47 516.667 396.997 516.667C402.523 516.667 407.569 513.547 410.048 508.603L422.618 483.462C425.987 476.739 429.574 470.075 433.235 463.439C434.285 461.544 435.335 459.633 436.385 457.766C439.491 452.283 442.67 446.815 445.908 441.404C448.416 437.204 450.895 433.106 453.331 429.169H516.3L539.632 545.833H254.375V545.834Z" fill="#31849B"/>
<path d="M397.001 341.673C405.05 341.673 411.583 335.14 411.583 327.091C411.583 319.041 405.05 312.508 397.001 312.508C388.951 312.508 382.418 319.041 382.418 327.091C382.418 335.14 388.951 341.673 397.001 341.673Z" fill="#31849B"/>
</g>
</g>
<defs>
<clipPath id="clip0_0_1">
<rect width="800" height="800" fill="transparent"/>
</clipPath>
<clipPath id="clip1_0_1">
<rect width="350" height="350" fill="transparent" transform="translate(222 225)"/>
</clipPath>
</defs>
</svg>
