<svg width="800" height="800" viewBox="0 0 800 800" fill="none" xmlns="http://www.w3.org/2000/svg">
<rect width="800" height="800" fill="transparent"/>
<g clip-path="url(#clip0_0_1)">
<path d="M633.333 300C633.333 171.133 528.867 66.6666 400 66.6666C271.133 66.6666 166.667 171.133 166.667 300C166.667 346.233 180.333 389.233 203.5 425.5H203.233C281.9 548.667 400 733.333 400 733.333L596.767 425.5H596.533C619.667 389.233 633.333 346.233 633.333 300ZM400 400C344.767 400 300 355.233 300 300C300 244.767 344.767 200 400 200C455.233 200 500 244.767 500 300C500 355.233 455.233 400 400 400Z" fill="white"/>
</g>
<defs>
<clipPath id="clip0_0_1">
<rect width="800" height="800" fill="white"/>
</clipPath>
</defs>
</svg>
