<svg width="1637" height="691" viewBox="0 0 1637 691" fill="none" xmlns="http://www.w3.org/2000/svg">
<rect width="1637" height="691" fill="transparent"/>
<path d="M1033 76.8V356H977V174.4L902.2 356H859.8L784.6 174.4V356H728.6V76.8H792.2L881 284.4L969.8 76.8H1033ZM1291.97 163.2C1291.97 178.133 1288.37 192.133 1281.17 205.2C1274.23 218.267 1263.17 228.8 1247.97 236.8C1233.03 244.8 1214.1 248.8 1191.17 248.8H1144.37V356H1088.37V76.8H1191.17C1212.77 76.8 1231.17 80.5333 1246.37 88C1261.57 95.4667 1272.9 105.733 1280.37 118.8C1288.1 131.867 1291.97 146.667 1291.97 163.2ZM1188.77 203.6C1204.23 203.6 1215.7 200.133 1223.17 193.2C1230.63 186 1234.37 176 1234.37 163.2C1234.37 136 1219.17 122.4 1188.77 122.4H1144.37V203.6H1188.77ZM1636.13 76.8V356H1580.13V174.4L1505.33 356H1462.93L1387.73 174.4V356H1331.73V76.8H1395.33L1484.13 284.4L1572.93 76.8H1636.13Z" fill="black"/>
<path d="M560.857 197.669V493.331L302 647.813L43.1429 493.331V197.669L302 43.1865L560.857 197.669ZM323.571 5.78605C317.013 1.99554 309.573 0 302 0C294.427 0 286.987 1.99554 280.429 5.78605L21.5714 160.268C15.013 164.059 9.56689 169.51 5.78032 176.076C1.99376 182.641 0.000192383 190.088 0 197.669V493.331C0.000192383 500.912 1.99376 508.359 5.78032 514.924C9.56689 521.49 15.013 526.941 21.5714 530.732L280.429 685.214C286.987 689.004 294.427 691 302 691C309.573 691 317.013 689.004 323.571 685.214L582.429 530.732C588.987 526.941 594.433 521.49 598.22 514.924C602.006 508.359 604 500.912 604 493.331V197.669C604 190.088 602.006 182.641 598.22 176.076C594.433 169.51 588.987 164.059 582.429 160.268L323.571 5.78605Z" fill="#04A3C4"/>
<path d="M775.7 638.19C767.427 638.19 759.947 636.773 753.26 633.94C746.687 631.107 741.473 627.027 737.62 621.7C733.767 616.373 731.783 610.083 731.67 602.83H757.17C757.51 607.703 759.21 611.557 762.27 614.39C765.443 617.223 769.75 618.64 775.19 618.64C780.743 618.64 785.107 617.337 788.28 614.73C791.453 612.01 793.04 608.497 793.04 604.19C793.04 600.677 791.963 597.787 789.81 595.52C787.657 593.253 784.937 591.497 781.65 590.25C778.477 588.89 774.057 587.417 768.39 585.83C760.683 583.563 754.393 581.353 749.52 579.2C744.76 576.933 740.623 573.59 737.11 569.17C733.71 564.637 732.01 558.63 732.01 551.15C732.01 544.123 733.767 538.003 737.28 532.79C740.793 527.577 745.723 523.61 752.07 520.89C758.417 518.057 765.67 516.64 773.83 516.64C786.07 516.64 795.987 519.643 803.58 525.65C811.287 531.543 815.537 539.817 816.33 550.47H790.15C789.923 546.39 788.167 543.047 784.88 540.44C781.707 537.72 777.457 536.36 772.13 536.36C767.483 536.36 763.743 537.55 760.91 539.93C758.19 542.31 756.83 545.767 756.83 550.3C756.83 553.473 757.85 556.137 759.89 558.29C762.043 560.33 764.65 562.03 767.71 563.39C770.883 564.637 775.303 566.11 780.97 567.81C788.677 570.077 794.967 572.343 799.84 574.61C804.713 576.877 808.907 580.277 812.42 584.81C815.933 589.343 817.69 595.293 817.69 602.66C817.69 609.007 816.047 614.9 812.76 620.34C809.473 625.78 804.657 630.143 798.31 633.43C791.963 636.603 784.427 638.19 775.7 638.19ZM893.404 638.19C882.297 638.19 872.097 635.583 862.804 630.37C853.51 625.157 846.144 617.96 840.704 608.78C835.264 599.487 832.544 589.003 832.544 577.33C832.544 565.77 835.264 555.4 840.704 546.22C846.144 536.927 853.51 529.673 862.804 524.46C872.097 519.247 882.297 516.64 893.404 516.64C904.624 516.64 914.824 519.247 924.004 524.46C933.297 529.673 940.607 536.927 945.934 546.22C951.374 555.4 954.094 565.77 954.094 577.33C954.094 589.003 951.374 599.487 945.934 608.78C940.607 617.96 933.297 625.157 924.004 630.37C914.71 635.583 904.51 638.19 893.404 638.19ZM893.404 616.94C900.544 616.94 906.834 615.353 912.274 612.18C917.714 608.893 921.964 604.247 925.024 598.24C928.084 592.233 929.614 585.263 929.614 577.33C929.614 569.397 928.084 562.483 925.024 556.59C921.964 550.583 917.714 545.993 912.274 542.82C906.834 539.647 900.544 538.06 893.404 538.06C886.264 538.06 879.917 539.647 874.364 542.82C868.924 545.993 864.674 550.583 861.614 556.59C858.554 562.483 857.024 569.397 857.024 577.33C857.024 585.263 858.554 592.233 861.614 598.24C864.674 604.247 868.924 608.893 874.364 612.18C879.917 615.353 886.264 616.94 893.404 616.94ZM1045.07 518.34V537.55H995.6V567.98H1033.51V586.85H995.6V637H971.8V518.34H1045.07ZM1142.7 518.34V537.55H1111.08V637H1087.28V537.55H1055.66V518.34H1142.7ZM1318.67 518.34L1285.52 637H1257.47L1235.2 552.51L1211.91 637L1184.03 637.17L1152.07 518.34H1177.57L1198.48 610.48L1222.62 518.34H1249.14L1271.92 609.97L1293 518.34H1318.67ZM1406.97 614.39H1359.71L1351.89 637H1326.9L1369.57 518.17H1397.28L1439.95 637H1414.79L1406.97 614.39ZM1400.51 595.35L1383.34 545.71L1366.17 595.35H1400.51ZM1517.1 637L1490.92 590.76H1479.7V637H1455.9V518.34H1500.44C1509.62 518.34 1517.44 519.983 1523.9 523.27C1530.36 526.443 1535.18 530.807 1538.35 536.36C1541.64 541.8 1543.28 547.92 1543.28 554.72C1543.28 562.54 1541.02 569.623 1536.48 575.97C1531.95 582.203 1525.21 586.51 1516.25 588.89L1544.64 637H1517.1ZM1479.7 572.91H1499.59C1506.05 572.91 1510.87 571.38 1514.04 568.32C1517.22 565.147 1518.8 560.783 1518.8 555.23C1518.8 549.79 1517.22 545.597 1514.04 542.65C1510.87 539.59 1506.05 538.06 1499.59 538.06H1479.7V572.91ZM1588.61 537.55V567.3H1628.56V586.17H1588.61V617.62H1633.66V637H1564.81V518.17H1633.66V537.55H1588.61Z" fill="#323232"/>
<path fill-rule="evenodd" clip-rule="evenodd" d="M133.95 386.551C125.935 380.044 125.829 369.385 133.714 362.746L247.933 266.569C255.817 259.93 268.707 259.823 276.723 266.33C284.738 272.838 284.844 283.495 276.959 290.136L177.018 374.29L278.614 456.77C286.629 463.277 286.735 473.935 278.85 480.575C270.965 487.214 258.075 487.322 250.06 480.814L133.95 386.551Z" fill="#04A3C4"/>
<path fill-rule="evenodd" clip-rule="evenodd" d="M472.984 323.097C480.934 329.671 480.934 340.329 472.984 346.903L357.814 442.127C349.865 448.701 336.974 448.701 329.023 442.127C321.073 435.552 321.073 424.895 329.023 418.32L429.796 335L329.023 251.679C321.073 245.105 321.073 234.447 329.023 227.873C336.974 221.299 349.865 221.299 357.814 227.873L472.984 323.097Z" fill="#04A3C4"/>
</svg>
