<svg width="800" height="800" viewBox="0 0 800 800" fill="none" xmlns="http://www.w3.org/2000/svg">
<rect width="800" height="800" fill="transparent"/>
<g clip-path="url(#clip0_0_1)">
<path d="M800 0H0V800H800V0Z" fill="transparent"/>
<path d="M697 228.849V571.149L397 749.999L97 571.149V228.849L397 49.9987L697 228.849ZM422 6.69873C414.399 2.31031 405.777 0 397 0C388.223 0 379.601 2.31031 372 6.69873L72 185.549C64.3992 189.937 58.0875 196.249 53.699 203.849C49.3106 211.45 47.0002 220.072 47 228.849V571.149C47.0002 579.925 49.3106 588.547 53.699 596.148C58.0875 603.749 64.3992 610.06 72 614.449L372 793.299C379.601 797.687 388.223 799.997 397 799.997C405.777 799.997 414.399 797.687 422 793.299L722 614.449C729.601 610.06 735.913 603.749 740.301 596.148C744.689 588.547 747 579.925 747 571.149V228.849C747 220.072 744.689 211.45 740.301 203.849C735.913 196.249 729.601 189.937 722 185.549L422 6.69873Z" fill="#31849B"/>
<path d="M474.414 360.956C469.627 379.171 458.455 383.183 452.494 383.988C448.822 391.293 440.751 406.222 432.677 413.723C429.449 416.72 425.255 419.25 420.212 421.242C413.773 423.784 406.972 425.074 400.001 425.074C393.03 425.074 386.229 423.784 379.79 421.242C374.747 419.251 370.552 416.722 367.325 413.723C359.249 406.223 351.178 391.293 347.506 383.988C341.547 383.183 330.375 379.172 325.587 360.956C323.027 351.216 323.682 343.275 327.537 337.355C329.241 334.738 331.306 332.956 333.229 331.749C333.235 329.805 333.317 327.37 333.543 324.601C330.081 319.814 325.373 309.483 331.204 292.763C337.366 275.086 351.298 272.356 358.023 272.119C360.296 267.914 364.591 261.943 372.391 256.454C381.049 250.357 392.354 247 404.224 247C418.83 247 433.528 252.115 446.727 261.793C468.127 277.484 466.294 312.289 465.769 318.608C466.546 323.906 466.761 328.5 466.771 331.748C468.694 332.955 470.759 334.737 472.463 337.353C476.318 343.275 476.973 351.214 474.414 360.956ZM537 496.595V546C537 549.866 533.85 553 529.966 553H270.034C266.15 553 263 549.866 263 546V496.595C263 476.355 275.203 458.419 294.089 450.901L355.59 426.422C357.36 425.719 359.341 425.757 361.081 426.535C362.82 427.311 364.169 428.757 364.816 430.54L380.278 473.075L383.339 464.317L378.469 452.469C377.582 450.31 377.833 447.853 379.14 445.917C380.447 443.981 382.636 442.819 384.98 442.819H415.022C417.366 442.819 419.556 443.981 420.862 445.917C422.169 447.853 422.419 450.31 421.533 452.469L416.662 464.317L419.724 473.075L435.185 430.54C435.832 428.757 437.181 427.311 438.92 426.535C440.661 425.758 442.643 425.72 444.411 426.422L505.912 450.901C524.798 458.419 537 476.355 537 496.595ZM499.555 501.967C499.555 498.101 496.405 494.967 492.52 494.967H445.292C441.408 494.967 438.258 498.101 438.258 501.967V523.792C438.258 527.657 441.408 530.791 445.292 530.791H492.52C496.405 530.791 499.555 527.657 499.555 523.792V501.967Z" fill="#31849B"/>
<path d="M638.033 323.516C634.363 337.504 625.801 340.585 621.232 341.203C618.418 346.813 612.232 358.278 606.044 364.039C603.571 366.341 600.356 368.283 596.491 369.813C591.556 371.766 586.343 372.756 581.001 372.756C575.658 372.756 570.445 371.766 565.51 369.813C561.646 368.284 558.43 366.342 555.957 364.039C549.768 358.279 543.582 346.813 540.768 341.203C536.2 340.585 527.638 337.505 523.968 323.516C522.006 316.035 522.508 309.937 525.463 305.39C526.769 303.381 528.351 302.012 529.825 301.085C529.83 299.592 529.892 297.722 530.066 295.596C527.412 291.919 523.804 283.986 528.273 271.144C532.996 257.569 543.673 255.473 548.828 255.291C550.57 252.061 553.862 247.476 559.84 243.26C566.475 238.578 575.14 236 584.237 236C595.432 236 606.696 239.928 616.813 247.361C633.214 259.411 631.809 286.14 631.407 290.993C632.002 295.062 632.167 298.59 632.175 301.084C633.649 302.011 635.231 303.38 636.537 305.389C639.492 309.937 639.994 316.034 638.033 323.516ZM686 427.682V465.624C686 468.593 683.586 471 680.609 471H481.391C478.414 471 476 468.593 476 465.624V427.682C476 412.138 485.353 398.364 499.827 392.591L546.963 373.791C548.32 373.252 549.838 373.281 551.172 373.878C552.504 374.474 553.538 375.585 554.034 376.954L565.884 409.619L568.231 402.894L564.498 393.795C563.819 392.137 564.01 390.25 565.012 388.763C566.014 387.276 567.692 386.384 569.488 386.384H592.513C594.309 386.384 595.988 387.276 596.989 388.763C597.991 390.25 598.183 392.137 597.503 393.795L593.77 402.894L596.117 409.619L607.967 376.954C608.463 375.585 609.497 374.474 610.829 373.878C612.163 373.282 613.682 373.253 615.038 373.791L662.174 392.591C676.648 398.364 686 412.138 686 427.682ZM657.301 431.808C657.301 428.839 654.887 426.432 651.91 426.432H615.713C612.736 426.432 610.322 428.839 610.322 431.808V448.569C610.322 451.537 612.736 453.944 615.713 453.944H651.91C654.887 453.944 657.301 451.537 657.301 448.569V431.808Z" fill="#31849B"/>
<path d="M271.033 323.888C267.363 337.936 258.801 341.03 254.232 341.651C251.418 347.285 245.232 358.799 239.044 364.584C236.571 366.895 233.356 368.846 229.491 370.383C224.556 372.343 219.343 373.338 214.001 373.338C208.658 373.338 203.445 372.343 198.51 370.383C194.646 368.847 191.43 366.896 188.957 364.584C182.768 358.8 176.582 347.285 173.768 341.651C169.2 341.03 160.638 337.937 156.968 323.888C155.006 316.375 155.508 310.251 158.463 305.685C159.769 303.667 161.351 302.293 162.825 301.362C162.83 299.863 162.892 297.985 163.066 295.849C160.412 292.157 156.804 284.19 161.273 271.294C165.996 257.661 176.673 255.555 181.828 255.373C183.57 252.13 186.862 247.525 192.84 243.291C199.475 238.589 208.14 236 217.237 236C228.432 236 239.696 239.945 249.813 247.409C266.214 259.51 264.809 286.354 264.407 291.227C265.002 295.313 265.167 298.856 265.175 301.361C266.649 302.292 268.231 303.666 269.537 305.684C272.492 310.251 272.994 316.374 271.033 323.888ZM319 428.498V466.602C319 469.583 316.586 472 313.609 472H114.391C111.414 472 109 469.583 109 466.602V428.498C109 412.888 118.353 399.055 132.827 393.257L179.963 374.378C181.32 373.836 182.838 373.865 184.172 374.465C185.504 375.063 186.538 376.178 187.034 377.554L198.884 410.358L201.231 403.604L197.498 394.466C196.819 392.801 197.01 390.907 198.012 389.413C199.014 387.92 200.692 387.024 202.488 387.024H225.513C227.309 387.024 228.988 387.92 229.989 389.413C230.991 390.907 231.183 392.801 230.503 394.466L226.77 403.604L229.117 410.358L240.967 377.554C241.463 376.178 242.497 375.063 243.829 374.465C245.163 373.866 246.682 373.837 248.038 374.378L295.174 393.257C309.648 399.055 319 412.888 319 428.498ZM290.301 432.641C290.301 429.66 287.887 427.242 284.91 427.242H248.713C245.736 427.242 243.322 429.66 243.322 432.641V449.473C243.322 452.454 245.736 454.872 248.713 454.872H284.91C287.887 454.872 290.301 452.454 290.301 449.473V432.641Z" fill="#31849B"/>
</g>
<defs>
<clipPath id="clip0_0_1">
<rect width="800" height="800" fill="transparent"/>
</clipPath>
</defs>
</svg>
