<svg width="800" height="800" viewBox="0 0 800 800" fill="none" xmlns="http://www.w3.org/2000/svg">
<rect width="800" height="800" fill="transparent"/>
<g clip-path="url(#clip0_0_1)">
<path d="M800 0H0V800H800V0Z" fill="transparent"/>
<path d="M697 228.849V571.149L397 749.999L97 571.149V228.849L397 49.9987L697 228.849ZM422 6.69873C414.399 2.31031 405.777 0 397 0C388.223 0 379.601 2.31031 372 6.69873L72 185.549C64.3992 189.937 58.0875 196.249 53.699 203.849C49.3106 211.45 47.0002 220.072 47 228.849V571.149C47.0002 579.925 49.3106 588.547 53.699 596.148C58.0875 603.749 64.3992 610.06 72 614.449L372 793.299C379.601 797.687 388.223 799.997 397 799.997C405.777 799.997 414.399 797.687 422 793.299L722 614.449C729.601 610.06 735.913 603.749 740.301 596.148C744.689 588.547 747 579.925 747 571.149V228.849C747 220.072 744.689 211.45 740.301 203.849C735.913 196.249 729.601 189.937 722 185.549L422 6.69873Z" fill="#31849B"/>
<path d="M594.632 262.933L588.173 258.267C582.302 253.6 574.083 254.767 569.973 260.6L560.097 273.398L559.405 272.849C557.644 271.682 556.469 271.682 554.708 271.682C552.947 271.682 551.772 272.849 550.599 274.015L548.411 276.971L527.114 271.681C525.353 271.098 522.417 272.264 521.244 274.014L508.327 291.124V283.668C508.387 282.999 508.31 282.345 508.111 281.719C507.886 280.934 507.479 280.263 506.892 279.612C506.788 279.494 506.68 279.379 506.566 279.266L453.726 226.77C453.613 226.657 453.497 226.549 453.378 226.446C452.723 225.862 452.048 225.458 451.257 225.234C450.628 225.037 449.969 224.96 449.296 225.02H255.871C252.348 225.02 250 227.353 250 230.852V569.162C250 572.662 252.348 574.995 255.871 574.995H502.456C505.979 574.995 508.327 572.662 508.327 569.162V411.37L589.934 304.347C591.696 302.014 591.109 297.931 588.76 296.181L587.385 295.089L597.567 281.016C601.677 275.182 600.502 267.017 594.632 262.933ZM527.701 283.932L540.968 287.033L508.327 331.149V309.712L527.701 283.932ZM466.055 444.921L447.901 432.702L455.022 423.025L472.388 436.607L466.055 444.921ZM479.473 427.306L461.983 413.627L468.756 404.499L486.674 417.851L479.473 427.306ZM442.723 443.43L457.529 454.462L437.287 468.252L435.093 466.617L442.723 443.43ZM493.761 408.548L475.723 395.107L482.733 385.659L501.075 398.946L493.761 408.548ZM508.161 389.643L489.699 376.269L496.694 366.839L515.372 380.176L508.161 389.643ZM488.365 277.516H455.487V244.851L488.365 277.516ZM496.585 563.33H261.742V236.685H443.745V283.349C443.745 286.849 446.093 289.181 449.616 289.181H496.584V306.68L486.016 320.679C484.255 323.012 484.842 327.096 487.191 328.846C488.365 329.429 489.539 330.012 490.714 330.012C492.475 330.012 494.236 329.429 494.823 327.68L496.584 325.336V346.928L434.351 430.339C434.351 430.922 433.764 431.506 433.764 432.089L422.022 467.087C421.454 469.343 422.535 471.598 424.2 473.326L420.848 478.17C419.086 481.087 419.673 484.586 422.609 486.336C423.783 486.919 424.957 487.503 426.132 487.503C427.893 487.503 429.654 486.92 430.829 484.586L433.691 480.45L433.764 480.504C434.939 481.087 436.113 481.67 437.287 481.67C438.461 481.67 439.635 481.087 440.223 481.087L470.752 460.089C470.91 459.932 471.068 459.762 471.223 459.585L471.34 459.505C471.927 459.505 471.927 458.922 472.514 458.338L496.586 426.771V563.33H496.585ZM523.479 371.784L503.471 357.704L556.47 286.265L576.431 302.014L523.479 371.784ZM586.999 274.016L577.292 287.065L569.127 280.576L578.78 267.6C579.367 267.017 579.955 267.017 580.542 267.6L587 272.266C587.586 272.849 587.586 273.433 586.999 274.016Z" fill="#31849B"/>
<path d="M373.292 335.845H302.839C299.316 335.845 296.968 338.178 296.968 341.678C296.968 345.178 299.316 347.511 302.839 347.511H373.292C376.815 347.511 379.163 345.178 379.163 341.678C379.163 338.178 376.815 335.845 373.292 335.845Z" fill="#31849B"/>
<path d="M373.292 405.84H302.839C299.316 405.84 296.968 408.173 296.968 411.673C296.968 415.173 299.316 417.506 302.839 417.506H373.292C376.815 417.506 379.163 415.173 379.163 411.673C379.163 408.173 376.815 405.84 373.292 405.84Z" fill="#31849B"/>
<path d="M373.292 475.836H302.839C299.316 475.836 296.968 478.169 296.968 481.668C296.968 485.168 299.316 487.501 302.839 487.501H373.292C376.815 487.501 379.163 485.168 379.163 481.668C379.163 478.169 376.815 475.836 373.292 475.836Z" fill="#31849B"/>
<path d="M416.151 351.594C417.326 352.761 418.499 353.344 420.261 353.344C422.022 353.344 423.783 352.761 424.37 351.011L453.726 316.013C456.074 313.68 455.487 310.181 453.139 307.847C450.791 305.513 447.268 306.097 444.919 308.43L419.674 338.761L412.629 331.762C410.28 329.429 406.758 329.429 404.409 331.762C402.06 334.095 402.061 337.594 404.409 339.928L416.151 351.594Z" fill="#31849B"/>
<path d="M424.37 421.006L453.726 386.009C456.074 383.676 455.487 380.176 453.139 377.842C450.791 375.509 447.268 376.092 444.919 378.425L419.674 408.756L412.629 401.757C410.28 399.424 406.758 399.424 404.409 401.757C402.06 404.09 402.061 407.59 404.409 409.923L416.151 421.589C417.326 422.756 418.499 423.339 420.261 423.339C422.022 423.339 423.783 422.756 424.37 421.006Z" fill="#31849B"/>
</g>
<defs>
<clipPath id="clip0_0_1">
<rect width="800" height="800" fill="transparent"/>
</clipPath>
</defs>
</svg>
